<?xml version="1.0" encoding="UTF-8"?>
<svg version="1.1" xmlns="http://www.w3.org/2000/svg" width="500" height="500">
<path d="M0 0 C1.80730649 -0.00417553 3.61461037 -0.00965425 5.42190939 -0.01631981 C10.37621087 -0.03076425 15.33034585 -0.0265328 20.28465641 -0.019153 C25.63240357 -0.0144212 30.98011473 -0.02693126 36.32785034 -0.03717041 C46.79960279 -0.05436319 57.27129524 -0.05519746 67.74305814 -0.04995751 C76.25439686 -0.04591565 84.76571786 -0.04735955 93.27705574 -0.05270576 C95.09430812 -0.0538284 95.09430812 -0.0538284 96.94827266 -0.05497371 C99.40944755 -0.05650519 101.87062243 -0.05804354 104.33179731 -0.05958868 C127.40995789 -0.07331533 150.48808456 -0.06787475 173.56624437 -0.05640347 C194.67862566 -0.04646981 215.79091933 -0.05941379 236.90328711 -0.08333766 C258.58404736 -0.10772045 280.26476679 -0.11733861 301.94554049 -0.11068493 C314.1166527 -0.10719104 326.28769751 -0.10943612 338.45879936 -0.12693596 C348.81917207 -0.1416476 359.17942991 -0.14230684 369.53980034 -0.12486505 C374.82509415 -0.1163444 380.11018267 -0.11423166 385.39546585 -0.1295166 C390.23585415 -0.14334159 395.07586083 -0.13862856 399.91622693 -0.11927737 C401.66511372 -0.11551037 403.41403092 -0.11845947 405.16289067 -0.12888902 C424.72024508 -0.2372075 424.72024508 -0.2372075 432.79432678 6.38768005 C433.56776428 7.37768005 433.56776428 7.37768005 434.35682678 8.38768005 C435.16120178 9.37768005 435.16120178 9.37768005 435.98182678 10.38768005 C439.10937929 14.93684734 439.6090212 18.01940975 439.61968231 23.61705303 C439.62378758 24.35003785 439.62789285 25.08302266 439.63212252 25.83821914 C439.64348034 28.30770988 439.64054592 30.77697815 439.63771057 33.24649048 C439.64287684 35.02956964 439.64890288 36.81264649 439.65571737 38.59572011 C439.67187615 43.5062003 439.67543755 48.41662204 439.67691231 53.32712567 C439.68061018 58.61904481 439.69570324 63.9109335 439.70918274 69.20283508 C439.73636391 80.77927537 439.74840112 92.35570183 439.75720406 103.93216872 C439.76272654 111.15863257 439.77120082 118.38509106 439.7802124 125.61155128 C439.8045998 145.61385226 439.82519792 165.61614894 439.83196259 185.61846447 C439.83262128 187.53932116 439.83262128 187.53932116 439.83329329 189.49898304 C439.83372984 190.78264399 439.8341664 192.06630493 439.83461618 193.3888647 C439.83550312 195.9901137 439.83639625 198.5913627 439.83729553 201.19261169 C439.83795982 203.12808179 439.83795982 203.12808179 439.83863753 205.10265229 C439.84653427 226.01236213 439.88144371 246.92193259 439.92801458 267.83158859 C439.97542648 289.29182975 440.0003656 310.75200096 440.00269842 332.21229535 C440.00453282 344.26445275 440.01605978 356.31642857 440.05233765 368.368536 C440.08311933 378.63100411 440.09339276 388.89323455 440.07686144 399.15574005 C440.06904096 404.39237599 440.07094278 409.62853318 440.09897614 414.8651104 C440.12441111 419.66014785 440.12209871 424.45434577 440.09779471 429.2493817 C440.09387305 430.98293157 440.10007366 432.71654046 440.11748344 434.45000734 C440.26435888 450.0642148 440.26435888 450.0642148 435.052423 456.7409752 C429.10212097 462.51970431 423.29107062 464.5387209 415.11273861 464.52469444 C414.36601187 464.52734627 413.61928514 464.5299981 412.84993032 464.53273028 C410.32771609 464.54043849 407.80555043 464.54098304 405.2833252 464.5415802 C403.46470024 464.54559383 401.64607617 464.55003188 399.8274532 464.55485976 C394.8140424 464.56684235 389.80064124 464.57247762 384.78721893 464.57704091 C379.38620551 464.58299066 373.98520364 464.5946021 368.584198 464.60533142 C355.53226824 464.62987032 342.48033466 464.64448501 329.42838892 464.65739149 C325.74295462 464.66110242 322.05752069 464.66507573 318.37208676 464.66914415 C295.49460268 464.69438027 272.61711801 464.71643722 249.73962307 464.7288723 C244.43876582 464.73180208 239.13790859 464.73476373 233.83705139 464.73777771 C231.86075321 464.73889679 231.86075321 464.73889679 229.84452982 464.74003847 C208.4989624 464.75269339 187.15348791 464.78591736 165.80795788 464.82757954 C143.90139366 464.86998681 121.99487208 464.89356597 100.08826691 464.89879286 C87.78513093 464.9022084 75.48212508 464.91398052 63.17902946 464.9468956 C52.70139662 464.97488065 42.22392056 464.98590218 31.74625324 464.97470014 C26.40018979 464.96950954 21.05445474 464.97242665 15.70843887 464.99716568 C10.81224807 465.01963398 5.91662205 465.01893689 1.02042151 464.99996181 C-0.74884177 464.99715842 -2.51814316 465.00277913 -4.28734512 465.01777475 C-22.09303577 465.1594406 -22.09303577 465.1594406 -29.64317322 459.38768005 C-36.00255094 452.80400425 -37.89146123 446.07159668 -37.89764881 436.92692661 C-37.90085529 436.20537603 -37.90406177 435.48382545 -37.90736541 434.7404097 C-37.91565233 432.32787534 -37.90974577 429.91559008 -37.90386963 427.50305176 C-37.9068909 425.7537949 -37.91078027 424.00453936 -37.9154622 422.25528616 C-37.92575391 417.45225645 -37.92355738 412.64930129 -37.9192816 407.84626544 C-37.91681653 402.66485641 -37.92582578 397.48346543 -37.93331909 392.30206299 C-37.94607392 382.15290056 -37.94785883 372.00376458 -37.94551883 361.85459549 C-37.94373649 353.60635287 -37.9454835 345.35811829 -37.94974327 337.10987663 C-37.95033846 335.93638168 -37.95093365 334.76288673 -37.95154687 333.55383132 C-37.95275861 331.16995991 -37.95397275 328.78608849 -37.95518925 326.40221708 C-37.96606768 304.04233362 -37.96390078 281.68246524 -37.9578044 259.32258093 C-37.95263421 238.86185524 -37.96389287 218.40117714 -37.98290262 197.94046087 C-38.00226855 176.93552562 -38.01053926 155.9306129 -38.00677937 134.92566866 C-38.00486553 123.13130816 -38.00737273 111.33698819 -38.02149391 99.54263496 C-38.03339275 89.50277085 -38.03482937 79.4629722 -38.02270374 69.42310721 C-38.01680474 64.30012582 -38.0157439 59.17726426 -38.02770615 54.05429077 C-38.03852976 49.36448605 -38.03550361 44.67490173 -38.02144446 39.98510747 C-38.01878783 38.28868504 -38.02119429 36.59224553 -38.02918033 34.89583982 C-38.07511038 24.41146898 -37.58710137 16.44509438 -31.64317322 7.38768005 C-32.30317322 6.72768005 -32.96317322 6.06768005 -33.64317322 5.38768005 C-32.98317322 4.72768005 -32.32317322 4.06768005 -31.64317322 3.38768005 C-30.62223572 3.41861755 -30.62223572 3.41861755 -29.58067322 3.45018005 C-26.45013666 3.56095522 -26.45013666 3.56095522 -23.06227779 1.90800381 C-15.64666934 -0.61278009 -7.73706237 -0.02904508 0 0 Z M100.19667053 187.16893005 C84.7033618 205.85300513 81.9216272 227.9460869 83.35682678 251.38768005 C85.22106445 270.27712442 92.20253221 286.36457726 106.32948303 299.17674255 C119.33899627 309.59503858 134.8476111 311.94831576 151.04432678 311.76268005 C152.10222916 311.756698 152.10222916 311.756698 153.1815033 311.75059509 C169.61657034 311.6416009 183.22056268 308.69068381 199.35682678 304.38768005 C199.35682678 279.96768005 199.35682678 255.54768005 199.35682678 230.38768005 C180.87682678 230.38768005 162.39682678 230.38768005 143.35682678 230.38768005 C143.35682678 238.30768005 143.35682678 246.22768005 143.35682678 254.38768005 C144.4163273 255.67194902 144.4163273 255.67194902 146.85707092 255.50120544 C148.48310242 255.49335022 148.48310242 255.49335022 150.14198303 255.4853363 C151.72184998 255.48158997 151.72184998 255.48158997 153.33363342 255.47776794 C155.35605164 255.46411194 155.35605164 255.46411194 157.41932678 255.45018005 C161.68870178 255.42955505 165.95807678 255.40893005 170.35682678 255.38768005 C170.02682678 265.28768005 169.69682678 275.18768005 169.35682678 285.38768005 C155.8570782 287.63763815 141.06086162 288.5210401 129.13807678 280.9853363 C120.38846584 274.30886079 116.76984473 263.70877683 114.82557678 253.22361755 C112.82944196 236.88858096 113.85596103 220.36681846 123.35682678 206.38768005 C123.91370178 205.83467224 124.47057678 205.28166443 125.04432678 204.7118988 C126.59147916 203.46167592 126.59147916 203.46167592 126.35682678 201.38768005 C126.94335022 201.10795349 127.52987366 200.82822693 128.13417053 200.5400238 C130.19954324 199.46922424 132.01063692 198.27348339 133.91932678 196.95018005 C144.78142887 190.22602162 158.45772964 189.64192666 170.75917053 192.2197113 C174.66494513 193.14192657 178.51127958 194.23988056 182.35682678 195.38768005 C183.67663237 195.76705219 184.99692915 196.14472059 186.31776428 196.52049255 C187.32065491 196.80666443 188.32354553 197.0928363 189.35682678 197.38768005 C191.97944854 192.33590863 194.5021913 187.25154384 196.73182678 182.01268005 C197.06956116 181.22119568 197.40729553 180.4297113 197.75526428 179.61424255 C198.48279261 176.92144289 198.74807634 175.84282633 197.35682678 173.38768005 C194.84996925 172.28368683 192.59835459 171.48975908 189.98182678 170.76268005 C188.98215881 170.45717224 188.98215881 170.45717224 187.96229553 170.14549255 C177.88549066 167.1738828 168.09993065 166.02160419 157.60682678 166.07518005 C155.89438782 166.08255188 155.89438782 166.08255188 154.14735413 166.09007263 C134.03117055 166.36855167 114.36293189 172.10460305 100.19667053 187.16893005 Z M220.35682678 168.38768005 C220.35682678 176.30768005 220.35682678 184.22768005 220.35682678 192.38768005 C233.22682678 192.38768005 246.09682678 192.38768005 259.35682678 192.38768005 C259.35682678 231.32768005 259.35682678 270.26768005 259.35682678 310.38768005 C268.92682678 310.38768005 278.49682678 310.38768005 288.35682678 310.38768005 C288.35682678 271.44768005 288.35682678 232.50768005 288.35682678 192.38768005 C301.22682678 192.38768005 314.09682678 192.38768005 327.35682678 192.38768005 C327.35682678 184.46768005 327.35682678 176.54768005 327.35682678 168.38768005 C292.04682678 168.38768005 256.73682678 168.38768005 220.35682678 168.38768005 Z " fill="#00BE62" transform="translate(45.64317321777344,15.612319946289063)"/>
<path d="M0 0 C6.39849715 0.60938068 10.59212723 3.18369577 14.75 8 C18.51771618 13.02362157 19.25058115 15.86829698 19.26006222 22.23216629 C19.26577072 23.33209291 19.26577072 23.33209291 19.27159455 24.45424026 C19.28194553 26.92474419 19.27799774 29.39501984 19.27415466 31.86553955 C19.27860517 33.64933108 19.28391859 35.43312063 19.29002339 37.21690726 C19.30423636 42.12932158 19.30586606 47.04167273 19.30542648 51.95410466 C19.30707179 57.24804707 19.32013293 62.54196322 19.33161926 67.83589172 C19.35449061 79.41640082 19.36239215 90.99689162 19.36744571 102.57742023 C19.37070022 109.80588619 19.3772212 117.03434681 19.3844471 124.26280975 C19.40401572 144.26940363 19.42041842 164.27599253 19.42332363 184.28259659 C19.42360499 186.20383063 19.42360499 186.20383063 19.42389202 188.16387747 C19.42425828 190.76051346 19.42462198 193.35714946 19.42498314 195.95378545 C19.42516595 197.24279113 19.42534876 198.53179682 19.42553711 199.85986328 C19.42571766 201.15043899 19.42589821 202.44101469 19.42608423 203.77069876 C19.42962665 224.68753248 19.45665214 245.6042633 19.494035 266.52106133 C19.53209274 287.98694768 19.55148092 309.45278294 19.55178314 330.91870379 C19.55236828 342.97471596 19.56089657 355.03060538 19.58978081 367.086586 C19.61426079 377.35162653 19.62160043 387.61649956 19.60653328 397.88156137 C19.59935059 403.12004213 19.60028047 408.3581919 19.62294388 413.59663582 C19.64349246 418.39215505 19.64097201 423.18708794 19.62006903 427.98260054 C19.61656625 429.71747488 19.62151745 431.45239117 19.63577347 433.18721047 C19.75874485 449.1824697 19.75874485 449.1824697 14 456 C13.67 454.68 13.34 453.36 13 452 C13.66 452 14.32 452 15 452 C14.938125 450.88625 14.938125 450.88625 14.875 449.75 C15 447 15 447 15.99225694 445.27089828 C17.40422354 442.08910259 17.24947898 439.39201129 17.24888897 435.91562748 C17.2527999 434.83967828 17.2527999 434.83967828 17.25678983 433.74199274 C17.26311225 431.32587733 17.25511286 428.91001961 17.24723816 426.49391174 C17.24882568 424.74923145 17.25128871 423.00455177 17.25455457 421.25987381 C17.26098386 416.45566876 17.2548877 411.65154765 17.24679029 406.84734809 C17.24022512 401.67003916 17.2451592 396.4927398 17.24867249 391.31542969 C17.25372039 381.16886245 17.24806534 371.02232775 17.23882218 360.87576456 C17.22845039 349.06675342 17.22850806 337.25774935 17.22899476 325.44873451 C17.2294957 304.38175037 17.22032562 283.3147814 17.20581055 262.24780273 C17.19172431 241.7927218 17.18463968 221.33765421 17.18530273 200.88256836 C17.18534269 199.62294714 17.18538265 198.36332592 17.18542381 197.06553436 C17.18546417 195.80811898 17.18550452 194.55070359 17.1855461 193.25518471 C17.18623562 169.98820124 17.18034747 146.72122346 17.17139288 123.45424183 C17.16837378 115.21758257 17.16731299 106.98092435 17.16686058 98.7442646 C17.16617904 88.70938266 17.16172275 78.67451029 17.15252777 68.63963241 C17.14790472 63.51708281 17.14486615 58.39454547 17.14612198 53.27199364 C17.1472151 48.58599307 17.14371035 43.90001967 17.13647345 39.21402477 C17.1346567 37.51554806 17.13453315 35.81706856 17.13624074 34.11859173 C17.13830017 31.81576661 17.13425102 29.51303098 17.12863445 27.21021366 C17.12793003 25.92930696 17.1272256 24.64840025 17.12649983 23.32867819 C17.01586785 20.41754191 16.67820403 17.82519787 16 15 C15.67 15 15.34 15 15 15 C14.79375 14.113125 14.5875 13.22625 14.375 12.3125 C12.13987595 6.92788298 8.28934228 4.42922261 3.125 2.1875 C2.09375 1.795625 1.0625 1.40375 0 1 C0 0.67 0 0.34 0 0 Z " fill="#0DAC6B" transform="translate(466,17)"/>
<path d="M0 0 C1.32 0 2.64 0 4 0 C4 0.66 4 1.32 4 2 C-1.04656804 4.47102881 -5.1011083 5.43463343 -10.75024605 5.37473011 C-11.50308614 5.37879084 -12.25592624 5.38285156 -13.03157967 5.38703534 C-15.550632 5.39696981 -18.06912558 5.38556013 -20.58816528 5.3742218 C-22.41380732 5.37696277 -24.23944779 5.38101518 -26.06508434 5.38626546 C-31.0791734 5.39685544 -36.09308427 5.38872123 -41.10716558 5.37751496 C-46.51551288 5.36867689 -51.92383678 5.37711529 -57.33218384 5.38337708 C-67.92553149 5.392869 -78.51881106 5.38626196 -89.11215366 5.37411413 C-101.44312344 5.36049981 -113.77407696 5.36213146 -126.10505234 5.36424746 C-148.10211269 5.36743786 -170.09914066 5.35576621 -192.09619141 5.33618164 C-213.45232353 5.31717264 -234.80841119 5.31009524 -256.16455078 5.31567383 C-279.41026778 5.32172803 -302.65596808 5.3215615 -325.90168369 5.310188 C-328.3790346 5.30898068 -330.85638551 5.30777469 -333.33373642 5.30657005 C-334.55270468 5.30596651 -335.77167295 5.30536298 -337.02757964 5.30474115 C-345.62795789 5.30085787 -354.22832994 5.30125719 -362.82870865 5.3031559 C-373.30453106 5.30527531 -383.78032019 5.30007294 -394.25613321 5.28554235 C-399.60351971 5.2782859 -404.95085768 5.274232 -410.29824829 5.27878571 C-415.18955369 5.2828498 -420.08075872 5.27773185 -424.97204886 5.26515963 C-426.7451312 5.26222185 -428.51822295 5.26267894 -430.29130293 5.26680271 C-432.69480156 5.2718868 -435.09796141 5.26475209 -437.50143623 5.25447559 C-438.54241326 5.26107032 -438.54241326 5.26107032 -439.60442013 5.26779827 C-443.50541987 5.23586739 -446.4826367 4.70400869 -450 3 C-446.25 1.875 -446.25 1.875 -444 3 C-441.63091992 3.09814858 -439.29124503 3.13562536 -436.92187595 3.12863445 C-435.81050109 3.13126401 -435.81050109 3.13126401 -434.67667422 3.13394669 C-432.16826609 3.13863686 -429.65991516 3.13613349 -427.15150452 3.13371277 C-425.34525344 3.13557922 -423.53900277 3.13787926 -421.73275274 3.14057809 C-416.74916937 3.14672294 -411.7656027 3.14655936 -406.7820164 3.14538372 C-401.41520655 3.14518038 -396.04840217 3.15069196 -390.68159485 3.15544128 C-380.15977847 3.16376296 -369.63796769 3.1664968 -359.1161483 3.16705366 C-350.56787875 3.16752808 -342.01961105 3.16957911 -333.47134209 3.17275429 C-309.260517 3.18156481 -285.04969634 3.18617301 -260.83886964 3.18542381 C-258.87929201 3.18536388 -258.87929201 3.18536388 -256.88012695 3.18530273 C-255.57215562 3.18526185 -254.26418428 3.18522097 -252.91657745 3.18517885 C-231.7085169 3.18477221 -210.50047409 3.19434525 -189.29241867 3.2084411 C-167.5407309 3.22278476 -145.7890518 3.2297124 -124.03735918 3.22884732 C-111.81552312 3.22851467 -99.59370567 3.23129163 -87.37187386 3.24202538 C-76.9676107 3.25110396 -66.56337457 3.25332747 -56.15910918 3.24651595 C-50.84643065 3.24323739 -45.53380405 3.24324189 -40.22113037 3.2518692 C-35.36366107 3.25967649 -30.5062854 3.25836251 -25.64881855 3.24958507 C-23.88571373 3.24803725 -22.12260212 3.24991385 -20.3595053 3.25544515 C-17.97420971 3.26243646 -15.58924884 3.25726635 -13.20396519 3.24888897 C-12.16258934 3.25634124 -12.16258934 3.25634124 -11.10017559 3.26394406 C-7.49506918 3.2369324 -6.09536134 3.06357422 -3 1 C-2.01 1.33 -1.02 1.66 0 2 C0 1.34 0 0.68 0 0 Z " fill="#1BA065" transform="translate(471,475)"/>
<path d="M0 0 C1.48433357 2.96866715 1.15193824 5.65973305 1.17700195 8.97241211 C1.18685875 10.0482682 1.18685875 10.0482682 1.19691467 11.14585876 C1.21665138 13.52302143 1.22830931 15.90012101 1.23828125 18.27734375 C1.24235678 19.08817476 1.2464323 19.89900578 1.25063133 20.73440742 C1.2714909 25.02370067 1.28579465 29.31296191 1.29516602 33.60229492 C1.30624709 38.03909682 1.34066635 42.47539946 1.38033772 46.9120245 C1.40643822 50.31861831 1.41485182 53.72509179 1.41844749 57.13177681 C1.42332835 58.76769964 1.43498478 60.40361657 1.45348549 62.03944206 C1.47774501 64.32609978 1.47693727 66.6114473 1.4699707 68.89819336 C1.47583694 70.20010117 1.48170319 71.50200897 1.48774719 72.84336853 C1 76 1 76 -1.02937317 77.94386292 C-1.67968002 78.29238815 -2.32998688 78.64091339 -3 79 C-3 78.34 -3 77.68 -3 77 C-3.99 77.495 -3.99 77.495 -5 78 C-6.99960012 78.039992 -9.00047242 78.04346799 -11 78 C-8 76 -8 76 -1 75 C-1 50.58 -1 26.16 -1 1 C-19.48 1 -37.96 1 -57 1 C-57 4.3 -57 7.6 -57 11 C-57.66 9.68 -58.32 8.36 -59 7 C-59.66 6.67 -60.32 6.34 -61 6 C-60.625 3.5625 -60.625 3.5625 -60 1 C-57.48659116 -0.25670442 -55.69267362 -0.16580752 -52.87939453 -0.22119141 C-51.27730637 -0.25595078 -51.27730637 -0.25595078 -49.64285278 -0.29141235 C-47.90538284 -0.32118668 -47.90538284 -0.32118668 -46.1328125 -0.3515625 C-44.35340775 -0.38629166 -44.35340775 -0.38629166 -42.53805542 -0.42172241 C-40.02460071 -0.46941186 -37.51109829 -0.51463973 -34.99755859 -0.55761719 C-31.14792849 -0.62460104 -27.29862192 -0.70239908 -23.44921875 -0.78125 C-21.01042864 -0.82617577 -18.57162676 -0.87046758 -16.1328125 -0.9140625 C-14.97854767 -0.93796051 -13.82428284 -0.96185852 -12.63504028 -0.98648071 C-11.02349564 -1.0117836 -11.02349564 -1.0117836 -9.37939453 -1.03759766 C-8.43500519 -1.05456696 -7.49061584 -1.07153625 -6.51760864 -1.08901978 C-4.15133708 -1.00535111 -2.22562366 -0.80275425 0 0 Z " fill="#1FAE6C" transform="translate(246,245)"/>
<path d="M0 0 C7.25398658 0.47567125 13.26812223 2.29466594 20 5 C15.75169592 6.17904475 11.0652838 7.0326419 7 5 C7 4.01 7 3.02 7 2 C5.02 2 3.04 2 1 2 C0.67 1.34 0.34 0.68 0 0 Z " fill="#19A967" transform="translate(213,207)"/>
<path d="M0 0 C3 1 3 1 5 3 C6.64991582 3.70710678 8.31562256 4.37943989 10 5 C10 6.65 10 8.3 10 10 C6.82028869 8.62442924 4.95149011 7.10041354 2.75 4.4375 C1.96882812 3.50744141 1.96882812 3.50744141 1.171875 2.55859375 C0 1 0 1 0 0 Z M6 4 C7 6 7 6 7 6 Z " fill="#14AF69" transform="translate(166,287)"/>
<path d="M0 0 C1.55131943 3.92559489 0.37152113 6.30224841 -1.25 10.0625 C-1.68828125 11.10535156 -2.1265625 12.14820313 -2.578125 13.22265625 C-3.84759671 15.70231116 -4.90199595 17.21669656 -7 19 C-6.33392561 14.59041892 -4.73375271 10.73427814 -2.9375 6.6875 C-2.65583984 6.04232422 -2.37417969 5.39714844 -2.08398438 4.73242188 C-1.3937257 3.15301642 -0.69746802 1.57623507 0 0 Z " fill="#1CA569" transform="translate(244,191)"/>
<path d="M0 0 C-1.17578125 1.984375 -1.17578125 1.984375 -3 4 C-5.48046875 4.390625 -5.48046875 4.390625 -8.1875 4.25 C-9.53908203 4.19585937 -9.53908203 4.19585937 -10.91796875 4.140625 C-11.60503906 4.09421875 -12.29210937 4.0478125 -13 4 C-9.38656695 0.38656695 -4.97659681 -0.29274099 0 0 Z " fill="#15AE68" transform="translate(195,207)"/>
<path d="M0 0 C1.21386936 3.64160808 0.6674695 4.33165469 -0.9375 7.6875 C-1.31777344 8.49574219 -1.69804687 9.30398437 -2.08984375 10.13671875 C-2.39019531 10.75160156 -2.69054687 11.36648437 -3 12 C-3.66 12 -4.32 12 -5 12 C-5.33 13.65 -5.66 15.3 -6 17 C-7 15 -7 15 -6.328125 12.79296875 C-4.48170866 8.33079594 -2.69128582 4.03692873 0 0 Z " fill="#1FA96C" transform="translate(168,222)"/>
<path d="M0 0 C0.495 0.37125 0.99 0.7425 1.5 1.125 C-1.94833324 3.17757931 -3.81661591 4.1882763 -7.875 3.8125 C-8.74125 3.585625 -9.6075 3.35875 -10.5 3.125 C-10.5 2.465 -10.5 1.805 -10.5 1.125 C-3.11538462 -1.09038462 -3.11538462 -1.09038462 0 0 Z " fill="#21B56D" transform="translate(30.5,16.875)"/>
<path d="M0 0 C0.66 0.33 1.32 0.66 2 1 C1.67 4.3 1.34 7.6 1 11 C0.34 9.68 -0.32 8.36 -1 7 C-1.66 6.67 -2.32 6.34 -3 6 C-2.625 3.5625 -2.625 3.5625 -2 1 C-1.34 0.67 -0.68 0.34 0 0 Z " fill="#0CB769" transform="translate(188,245)"/>
<path d="M0 0 C0.99 0.33 1.98 0.66 3 1 C1.85793642 2.50287218 0.71125043 4.00223284 -0.4375 5.5 C-1.39462891 6.75296875 -1.39462891 6.75296875 -2.37109375 8.03125 C-2.90863281 8.6809375 -3.44617188 9.330625 -4 10 C-4.33 10 -4.66 10 -5 10 C-5 8.02 -5 6.04 -5 4 C-4.34 4 -3.68 4 -3 4 C-3 3.34 -3 2.68 -3 2 C-2.01 2 -1.02 2 0 2 C0 1.34 0 0.68 0 0 Z " fill="#17A866" transform="translate(145,201)"/>
<path d="M0 0 C0.33 0 0.66 0 1 0 C1.45732667 5.71658336 0.52273754 8.48649253 -3 13 C-3.33 11.68 -3.66 10.36 -4 9 C-3.34 9 -2.68 9 -2 9 C-2.04125 8.2575 -2.0825 7.515 -2.125 6.75 C-1.99601866 3.91241048 -1.42948778 2.41226062 0 0 Z " fill="#13AE68" transform="translate(483,460)"/>
<path d="M0 0 C1.32 0 2.64 0 4 0 C4 0.66 4 1.32 4 2 C0.86501708 3.85776765 -1.37471432 4.20140476 -5 4 C-5.33 3.34 -5.66 2.68 -6 2 C-3 1 -3 1 0 2 C0 1.34 0 0.68 0 0 Z " fill="#12B26B" transform="translate(471,475)"/>
<path d="M0 0 C1.12588014 0.95729916 2.2506715 1.91587895 3.375 2.875 C4.00148437 3.40867187 4.62796875 3.94234375 5.2734375 4.4921875 C6.55836651 5.61432007 7.79371975 6.79371975 9 8 C7.02 8 5.04 8 3 8 C3 6.68 3 5.36 3 4 C2.34 4 1.68 4 1 4 C0.67 2.68 0.34 1.36 0 0 Z " fill="#14AD68" transform="translate(146,309)"/>
<path d="M0 0 C2.95929119 2.75520215 5.03681826 5.46627288 7 9 C3.34683329 7.75023244 2.21934164 7.32901247 0 4 C0 2.68 0 1.36 0 0 Z " fill="#1DA969" transform="translate(139,300)"/>
<path d="M0 0 C3.53586014 3.17320782 5.58578031 5.16743695 6 10 C2.46413986 6.82679218 0.41421969 4.83256305 0 0 Z " fill="#21A66C" transform="translate(10,464)"/>
<path d="M0 0 C2.625 -0.1875 2.625 -0.1875 5 0 C5.33 0.66 5.66 1.32 6 2 C3.36 2.33 0.72 2.66 -2 3 C-1.34 2.01 -0.68 1.02 0 0 Z " fill="#BCBC94" transform="translate(14,19)"/>
</svg>
